<?xml version="1.0" encoding="utf-8"?>
<!-- Generator: Adobe Illustrator 27.3.1, SVG Export Plug-In . SVG Version: 6.00 Build 0)  -->
<svg version="1.1" xmlns="http://www.w3.org/2000/svg" xmlns:xlink="http://www.w3.org/1999/xlink" x="0px" y="0px"
	 viewBox="0 0 356.84 427.14" style="enable-background:new 0 0 356.84 427.14;" xml:space="preserve">
<style type="text/css">
	.st0{fill:url(#SVGID_1_);}
	.st1{fill:none;}
	.st2{fill:#FFFFFF;}
</style>
<g id="Layer_2">
	<linearGradient id="SVGID_1_" gradientUnits="userSpaceOnUse" x1="178.3614" y1="398.4733" x2="178.3614" y2="21.1247">
		<stop  offset="0" style="stop-color:#4047DA"/>
		<stop  offset="0.482" style="stop-color:#9B3095"/>
		<stop  offset="1" style="stop-color:#FE174C"/>
	</linearGradient>
	<polygon class="st0" points="178.42,21.12 334.61,97.35 334.61,325 179.4,398.47 22.11,323.8 23.71,97.75 	"/>
</g>
<g id="Layer_1">
	<g>
		<path class="st1" d="M-634.63-138.32"/>
	</g>
	<path class="st2" d="M179.17,403.5l158.27-76.06c0.05-0.02,0.09-0.07,0.14-0.1c0.03-0.02,0.06-0.04,0.09-0.06
		c0.04-0.03,0.08-0.06,0.12-0.1c0.59-0.53,0.94-1.4,0.94-2.17V97.35h0c-0.01-0.95-0.55-1.81-1.41-2.22L179.69,18.87
		c-0.69-0.33-1.5-0.33-2.19,0.01L21.01,95.5c-0.86,0.42-1.4,1.29-1.4,2.25v227.63c0,0.96,0.55,1.83,1.41,2.25L179.17,403.5z
		 M174.1,242.22l-66.05-32.02l66.05-32.34V242.22z M174.1,317.22l-65.15-31.59l65.15-31.9V317.22z M183.1,317.23v-63.52l65.65,31.76
		L183.1,317.23z M183.1,242.23v-64.4l66.56,32.2L183.1,242.23z M181.1,168.2v-67.21l69.46,33.6L181.1,168.2z M176.1,168.19
		l-68.94-33.43l68.94-33.76V168.19z M169.05,174.77l-66.7,32.66l-72.15-34.98l66.7-32.66L169.05,174.77z M169.95,250.21l-66.7,32.66
		l-72.15-34.98l66.7-32.66L169.95,250.21z M174.1,327.22v64.62L32.38,323.13l66.31-32.47L174.1,327.22z M183.1,392.1v-64.87
		l75.99-36.76l67.05,32.44L183.1,392.1z M254.5,282.69l-67.18-32.5L260,215.03l67.18,32.5L254.5,282.69z M255.4,207.25l-67.18-32.5
		l72.68-35.16l67.18,32.5L255.4,207.25z M256.31,131.81l-75.2-36.38V25.11l147.89,71.54L256.31,131.81z M176.1,95.44l-74.66,36.55
		L29.29,97.01L176.1,25.13V95.44z M91.18,137.02l-63.37,31.02V106.3L91.18,137.02z M92.08,212.46l-64.27,31.46V181.3L92.08,212.46z
		 M92.98,287.89L27.82,319.8v-63.5L92.98,287.89z M330.51,319.46l-65.68-31.77l65.68-31.77V319.46z M330.51,243.59l-64.77-31.34
		l64.77-31.34V243.59z M330.51,167.71l-63.87-30.9l63.87-30.9V167.71z"/>
</g>
</svg>
